<svg width="30" height="24" viewBox="0 0 30 24" fill="none" xmlns="http://www.w3.org/2000/svg">
<path d="M15 18C14.0314 18 13.0629 17.6611 12.2367 16.9744L0 6.825V21C0 22.6562 1.25918 24 2.8125 24H27.1875C28.7408 24 30 22.6569 30 21V6.825L17.7656 16.9813C16.9395 17.6625 15.9668 18 15 18ZM0.954492 5.08125L13.3881 15.4C14.3367 16.1875 15.6656 16.1875 16.6143 15.4L29.0479 5.08125C29.5957 4.58125 30 3.8125 30 3C30 1.34312 28.7402 0 27.1875 0H2.8125C1.25918 0 0 1.34312 0 3C0 3.8125 0.352149 4.58125 0.954492 5.08125Z" fill="#6B4E88" fill-opacity="0.54"/>
</svg>
