<svg width="44" height="44" viewBox="0 0 44 44" fill="none" xmlns="http://www.w3.org/2000/svg">
<path d="M40.8571 17.3125H26.7143V3.25C26.7143 1.52441 25.3069 0.125 23.5714 0.125H20.4286C18.6931 0.125 17.2857 1.52441 17.2857 3.25V17.3125H3.14286C1.40741 17.3125 0 18.7119 0 20.4375V23.5625C0 25.2881 1.40741 26.6875 3.14286 26.6875H17.2857V40.75C17.2857 42.4756 18.6931 43.875 20.4286 43.875H23.5714C25.3069 43.875 26.7143 42.4756 26.7143 40.75V26.6875H40.8571C42.5926 26.6875 44 25.2881 44 23.5625V20.4375C44 18.7119 42.5926 17.3125 40.8571 17.3125Z" fill="#F1F1F1" fill-opacity="0.57"/>
</svg>
