<svg width="500" height="500" xmlns="http://www.w3.org/2000/svg">
 <g>
  <title>Layer 1</title>
  <path id="svg_10" d="m-338.05852,-203.47033l938.64661,0l0,733.03891l-938.64661,0l0,-733.03891z" opacity="undefined" fill="none"/>
  <path id="svg_2" d="m1422,272" opacity="NaN" stroke="#000" fill="#fff"/>
  <path id="svg_3" d="m1633,510" opacity="NaN" stroke="#000" fill="#fff"/>
  <path id="svg_4" d="m1498,308" opacity="NaN" stroke="#000" fill="#fff"/>
  <path id="svg_6" d="m785,537" opacity="NaN" stroke="#000" fill="#000000"/>
  <path id="svg_7" d="m740,325c-114,226 27,294 79,169c52,-125 -21,-69 -21,-69" opacity="NaN" stroke="#000" fill="#000000"/>
  <path id="svg_8" d="m710,360l236,98l-145,-79c0,0 16,175 20,187c4,12 16,116 17,117" opacity="NaN" stroke="#000" fill="#000000"/>
  <path stroke="#ffffff" stroke-width="50" fill="none" opacity="NaN" d="m46.81599,347.87503l111.54858,112.48029c0.55719,0.56184 231.54782,-359.59607 311.82899,-423.50533" id="svg_1"/>
 </g>

</svg>