<svg width="30" height="33" viewBox="0 0 30 33" fill="none" xmlns="http://www.w3.org/2000/svg">
<path d="M5.35714 12.375V9.28125C5.35714 4.15529 9.67634 0 15 0C20.3237 0 24.6429 4.15529 24.6429 9.28125V12.375H25.7143C28.0781 12.375 30 14.2248 30 16.5V28.875C30 31.1502 28.0781 33 25.7143 33H4.28571C1.91853 33 0 31.1502 0 28.875V16.5C0 14.2248 1.91853 12.375 4.28571 12.375H5.35714ZM9.64286 12.375H20.3571V9.28125C20.3571 6.43371 17.9598 4.125 15 4.125C12.0402 4.125 9.64286 6.43371 9.64286 9.28125V12.375Z" fill="#5F6170"/>
</svg>
